<svg width="14" height="14" viewBox="0 0 14 14" fill="none" xmlns="http://www.w3.org/2000/svg">
<g clip-path="url(#clip0_1_113)">
<path d="M8.63917 0.875L9.64046 2.42317L11.482 2.51533L11.5751 4.35663L13.1241 5.35704L12.2838 6.99854L13.125 8.63917L11.5768 9.64046L11.4847 11.482L9.64337 11.5751L8.64296 13.1241L7.00146 12.2838L5.36083 13.125L4.35954 11.5768L2.51796 11.4847L2.42492 9.64337L0.875875 8.64296L1.71617 7.00146L0.875 5.36083L2.42317 4.35954L2.51533 2.51796L4.35663 2.42492L5.35704 0.875875L6.99854 1.71617L8.63917 0.875Z" fill="#42A5F5"/>
<path d="M6.24048 9.11601L4.34552 7.22164L4.96444 6.60301L6.24981 7.88839L9.04048 5.18347L9.64948 5.81172L6.24048 9.11601Z" fill="white"/>
</g>
<defs>
<clipPath id="clip0_1_113">
<rect width="14" height="14" fill="white"/>
</clipPath>
</defs>
</svg>
