<svg width="24" height="24" viewBox="0 0 24 24" fill="none" xmlns="http://www.w3.org/2000/svg">
<path d="M11.2231 1.52831C11.4802 1.50933 11.7378 1.49983 11.9955 1.49981V0C11.7008 0.000143723 11.4061 0.0111498 11.1122 0.0329959L11.2231 1.52831ZM8.21752 2.20322C8.69829 2.0177 9.19206 1.86782 9.69483 1.75478L9.36637 0.290964C8.79194 0.419948 8.22652 0.590926 7.67758 0.8039L8.21752 2.20322ZM6.16277 3.26809C6.37721 3.12508 6.59683 2.99001 6.82119 2.86314L6.08178 1.55831C5.56899 1.84887 5.07823 2.17671 4.61347 2.53918L5.53585 3.72253C5.73919 3.5639 5.9483 3.41282 6.16277 3.26959V3.26809ZM3.41212 5.95276C3.70879 5.53127 4.03613 5.13224 4.3915 4.7589L3.30563 3.72403C2.90068 4.15148 2.52573 4.60892 2.18527 5.08886L3.41212 5.95276ZM2.29626 7.9805C2.3947 7.74272 2.50176 7.50859 2.61722 7.27859L1.27788 6.60367C1.01302 7.13024 0.787433 7.67565 0.602969 8.23547L2.02779 8.70491C2.10839 8.46024 2.19794 8.21861 2.29626 7.9805ZM1.50136 11.7405C1.51349 11.2251 1.56362 10.7113 1.65134 10.2032L0.174023 9.94826C0.073535 10.5272 0.0150423 11.1151 4.3869e-05 11.703L1.49986 11.7405H1.50136ZM1.69783 14.0472C1.64834 13.7923 1.60784 13.5388 1.57635 13.2823L0.0870342 13.4668C0.159072 14.052 0.274372 14.631 0.43199 15.1991L1.87781 14.7986C1.80882 14.5512 1.74883 14.3007 1.69783 14.0472ZM3.12565 17.6153C2.84969 17.1804 2.60672 16.7244 2.39674 16.2535L1.02592 16.8609C1.26589 17.4008 1.54335 17.9198 1.85831 18.4177L3.12565 17.6153ZM4.57147 19.4226C4.3885 19.2396 4.21302 19.0506 4.04654 18.8556L2.90968 19.835C3.1022 20.0582 3.30281 20.2744 3.51111 20.4829L4.57147 19.4226Z" fill="white"/>
<path d="M11.9956 1.49981C13.7221 1.49994 15.4218 1.92583 16.9444 2.73977C18.467 3.5537 19.7653 4.73056 20.7244 6.1661C21.6835 7.60165 22.2738 9.25156 22.443 10.9697C22.6122 12.6879 22.355 14.4212 21.6943 16.0163C21.0336 17.6113 19.9897 19.0188 18.6552 20.1141C17.3206 21.2093 15.7365 21.9586 14.0432 22.2954C12.35 22.6323 10.5997 22.5463 8.94759 22.0452C7.29545 21.5441 5.79238 20.6433 4.57152 19.4226L3.51116 20.4829C4.90638 21.8789 6.62439 22.9092 8.51297 23.4826C10.4016 24.0559 12.4024 24.1545 14.3382 23.7698C16.274 23.385 18.085 22.5287 19.6108 21.2767C21.1366 20.0247 22.33 18.4157 23.0853 16.5923C23.8406 14.7688 24.1345 12.7872 23.9409 10.8231C23.7473 8.85888 23.0723 6.97278 21.9755 5.33186C20.8788 3.69094 19.3943 2.34587 17.6534 1.41583C15.9126 0.485782 13.9693 -0.000523033 11.9956 4.22135e-07V1.49981Z" fill="white"/>
<path d="M12.7455 4.49944C12.5466 4.49944 12.3558 4.57844 12.2152 4.71908C12.0746 4.85971 11.9955 5.05045 11.9955 5.24934V13.0634L7.12416 15.847C6.95649 15.9482 6.83504 16.1109 6.78575 16.3004C6.73647 16.4899 6.76327 16.6912 6.86042 16.8612C6.95757 17.0312 7.11737 17.1565 7.30566 17.2102C7.49395 17.264 7.6958 17.242 7.86806 17.1489L13.1174 14.1492C13.2322 14.0837 13.3276 13.9889 13.394 13.8746C13.4603 13.7603 13.4953 13.6305 13.4954 13.4983V5.24934C13.4954 5.05045 13.4164 4.85971 13.2757 4.71908C13.1351 4.57844 12.9443 4.49944 12.7455 4.49944Z" fill="white"/>
</svg>
