<svg width="24" height="24" viewBox="0 0 24 24" fill="none" xmlns="http://www.w3.org/2000/svg">
<path fill-rule="evenodd" clip-rule="evenodd" d="M21.04 12C21.04 7.464 17.504 2.96 12 2.96C7.55521 2.96 5.35681 6.2496 4.42081 8H7.20002C7.41219 8 7.61567 8.08429 7.7657 8.23432C7.91573 8.38434 8.00002 8.58783 8.00002 8.8C8.00002 9.01217 7.91573 9.21566 7.7657 9.36569C7.61567 9.51572 7.41219 9.6 7.20002 9.6H2.40001C2.18784 9.6 1.98436 9.51572 1.83433 9.36569C1.6843 9.21566 1.60001 9.01217 1.60001 8.8V4C1.60001 3.78783 1.6843 3.58434 1.83433 3.43432C1.98436 3.28429 2.18784 3.2 2.40001 3.2C2.61219 3.2 2.81567 3.28429 2.9657 3.43432C3.11573 3.58434 3.20001 3.78783 3.20001 4V6.9008C4.32641 4.9136 6.93441 1.36 12 1.36C18.5008 1.36 22.64 6.696 22.64 12C22.64 17.304 18.5008 22.64 12 22.64C8.88961 22.64 6.30082 21.408 4.45762 19.5328C3.47955 18.5352 2.7037 17.3579 2.17281 16.0656C2.13289 15.9684 2.1125 15.8643 2.11281 15.7593C2.11311 15.6542 2.13411 15.5502 2.1746 15.4533C2.21508 15.3564 2.27427 15.2683 2.34877 15.1943C2.42327 15.1202 2.51164 15.0615 2.60881 15.0216C2.70599 14.9817 2.81008 14.9613 2.91514 14.9616C3.0202 14.9619 3.12417 14.9829 3.22111 15.0234C3.31806 15.0639 3.40608 15.1231 3.48015 15.1976C3.55422 15.2721 3.61289 15.3604 3.65281 15.4576C4.10494 16.5583 4.76559 17.5613 5.59841 18.4112C7.15201 19.9952 9.33601 21.04 12 21.04C17.504 21.04 21.04 16.536 21.04 12V12Z" fill="white"/>
</svg>
