<svg width="19" height="20" viewBox="0 0 19 20" fill="none" xmlns="http://www.w3.org/2000/svg">
<path d="M8.51686 1.23568C8.79496 1.08111 9.10782 1 9.42593 1C9.74403 1 10.0569 1.08111 10.335 1.23568L16.8885 4.87866C17.1805 5.04098 17.4239 5.27854 17.5933 5.56669C17.7627 5.85485 17.8519 6.18312 17.8519 6.51745V13.6816C17.8518 14.0158 17.7624 14.3439 17.593 14.6318C17.4236 14.9198 17.1804 15.1572 16.8885 15.3195L10.335 18.9643C10.0569 19.1189 9.74403 19.2 9.42593 19.2C9.10782 19.2 8.79496 19.1189 8.51686 18.9643L1.96336 15.3195C1.6716 15.1573 1.42844 14.92 1.25906 14.6322C1.08969 14.3444 1.00025 14.0166 1 13.6826V6.51745C0.999912 6.18312 1.08919 5.85485 1.25859 5.56669C1.42798 5.27854 1.67132 5.04098 1.96336 4.87866L8.51686 1.23568V1.23568Z" stroke="white" stroke-width="1.5"/>
<path d="M6.61731 10.3921L8.63953 12.5155L12.684 7.96545" stroke="white" stroke-width="1.5" stroke-linecap="round" stroke-linejoin="round"/>
</svg>
